<mxfile host="app.diagrams.net" modified="2022-02-22T15:06:56.344Z" agent="5.0 (Windows NT 10.0; Win64; x64) AppleWebKit/537.36 (KHTML, like Gecko) Chrome/98.0.4758.102 Safari/537.36" etag="eafXorg9QPCHvjWiCl0L" version="16.6.2" type="github">
  <diagram id="KUtuMzKKB8uBewpMS05B" name="Page-1">
    <mxGraphModel dx="1695" dy="895" grid="1" gridSize="10" guides="1" tooltips="1" connect="1" arrows="1" fold="1" page="1" pageScale="1" pageWidth="1169" pageHeight="827" math="0" shadow="0">
      <root>
        <mxCell id="0" />
        <mxCell id="1" parent="0" />
        <mxCell id="Q-Hs6A6w5mIqf8H45skU-13" value="" style="ellipse;whiteSpace=wrap;html=1;fontFamily=Helvetica;fontSize=9;fontColor=none;" vertex="1" parent="1">
          <mxGeometry x="274.09" y="75.63" width="143.18" height="56.25" as="geometry" />
        </mxCell>
        <mxCell id="Q-Hs6A6w5mIqf8H45skU-23" value="" style="group" vertex="1" connectable="0" parent="1">
          <mxGeometry x="45" y="10" width="378.18" height="300" as="geometry" />
        </mxCell>
        <mxCell id="Q-Hs6A6w5mIqf8H45skU-6" value="Actor" style="shape=umlActor;verticalLabelPosition=bottom;verticalAlign=top;html=1;outlineConnect=0;fontFamily=Helvetica;overflow=visible;fontColor=none;noLabel=1;" vertex="1" parent="Q-Hs6A6w5mIqf8H45skU-23">
          <mxGeometry x="10.454545454545455" y="37.5" width="62.72727272727272" height="112.5" as="geometry" />
        </mxCell>
        <mxCell id="Q-Hs6A6w5mIqf8H45skU-8" value="&lt;font style=&quot;font-size: 12px&quot;&gt;Користувач&lt;/font&gt;" style="text;html=1;strokeColor=none;fillColor=none;align=center;verticalAlign=middle;whiteSpace=wrap;rounded=0;fontFamily=Times New Roman;fontColor=none;fontSize=10;" vertex="1" parent="Q-Hs6A6w5mIqf8H45skU-23">
          <mxGeometry y="150" width="83.63636363636364" height="37.5" as="geometry" />
        </mxCell>
        <mxCell id="Q-Hs6A6w5mIqf8H45skU-11" value="" style="ellipse;whiteSpace=wrap;html=1;fontFamily=Helvetica;fontSize=9;fontColor=none;" vertex="1" parent="Q-Hs6A6w5mIqf8H45skU-23">
          <mxGeometry x="156.82" width="143.18" height="56.25" as="geometry" />
        </mxCell>
        <mxCell id="Q-Hs6A6w5mIqf8H45skU-12" value="" style="endArrow=classic;html=1;rounded=0;fontFamily=Helvetica;fontSize=9;fontColor=none;entryX=0;entryY=0.5;entryDx=0;entryDy=0;" edge="1" parent="Q-Hs6A6w5mIqf8H45skU-23" target="Q-Hs6A6w5mIqf8H45skU-13">
          <mxGeometry width="50" height="50" relative="1" as="geometry">
            <mxPoint x="73.18181818181819" y="93.75" as="sourcePoint" />
            <mxPoint x="156.8181818181818" y="112.5" as="targetPoint" />
          </mxGeometry>
        </mxCell>
        <mxCell id="Q-Hs6A6w5mIqf8H45skU-14" value="" style="endArrow=classic;html=1;rounded=0;fontFamily=Helvetica;fontSize=9;fontColor=none;entryX=0;entryY=0.5;entryDx=0;entryDy=0;" edge="1" parent="Q-Hs6A6w5mIqf8H45skU-23" target="Q-Hs6A6w5mIqf8H45skU-11">
          <mxGeometry width="50" height="50" relative="1" as="geometry">
            <mxPoint x="73.18181818181819" y="93.75" as="sourcePoint" />
            <mxPoint x="407.72727272727275" y="187.5" as="targetPoint" />
          </mxGeometry>
        </mxCell>
        <mxCell id="Q-Hs6A6w5mIqf8H45skU-15" value="" style="endArrow=classic;html=1;rounded=0;fontFamily=Helvetica;fontSize=9;fontColor=none;entryX=0.054;entryY=0.263;entryDx=0;entryDy=0;entryPerimeter=0;" edge="1" parent="Q-Hs6A6w5mIqf8H45skU-23" target="Q-Hs6A6w5mIqf8H45skU-16">
          <mxGeometry width="50" height="50" relative="1" as="geometry">
            <mxPoint x="73.18181818181819" y="93.75" as="sourcePoint" />
            <mxPoint x="156.8181818181818" y="150" as="targetPoint" />
          </mxGeometry>
        </mxCell>
        <mxCell id="Q-Hs6A6w5mIqf8H45skU-16" value="" style="ellipse;whiteSpace=wrap;html=1;fontFamily=Helvetica;fontSize=9;fontColor=none;" vertex="1" parent="Q-Hs6A6w5mIqf8H45skU-23">
          <mxGeometry x="135" y="135.63" width="153.18" height="66.25" as="geometry" />
        </mxCell>
        <mxCell id="Q-Hs6A6w5mIqf8H45skU-17" value="Зареєструватись&amp;nbsp;" style="text;html=1;strokeColor=none;fillColor=none;align=center;verticalAlign=middle;whiteSpace=wrap;rounded=0;fontFamily=Times New Roman;fontSize=12;fontColor=none;" vertex="1" parent="Q-Hs6A6w5mIqf8H45skU-23">
          <mxGeometry x="186.59636363636363" y="9.375" width="83.63636363636364" height="37.5" as="geometry" />
        </mxCell>
        <mxCell id="Q-Hs6A6w5mIqf8H45skU-18" value="&lt;font style=&quot;font-size: 12px&quot;&gt;Увійти&lt;/font&gt;" style="text;html=1;strokeColor=none;fillColor=none;align=center;verticalAlign=middle;whiteSpace=wrap;rounded=0;fontFamily=Times New Roman;fontSize=9;fontColor=none;" vertex="1" parent="Q-Hs6A6w5mIqf8H45skU-23">
          <mxGeometry x="256.1363636363636" y="75" width="83.63636363636364" height="37.5" as="geometry" />
        </mxCell>
        <mxCell id="Q-Hs6A6w5mIqf8H45skU-19" value="&lt;font style=&quot;font-size: 11px&quot;&gt;Прочитати правила&lt;br&gt;&amp;nbsp;використання сервісу&lt;/font&gt;" style="text;html=1;strokeColor=none;fillColor=none;align=center;verticalAlign=middle;whiteSpace=wrap;rounded=0;fontFamily=Times New Roman;fontSize=8;fontColor=none;" vertex="1" parent="Q-Hs6A6w5mIqf8H45skU-23">
          <mxGeometry x="127.95272727272729" y="150" width="167.27272727272728" height="37.5" as="geometry" />
        </mxCell>
        <mxCell id="Q-Hs6A6w5mIqf8H45skU-20" value="" style="endArrow=classic;html=1;rounded=0;fontFamily=Helvetica;fontSize=9;fontColor=none;entryX=0.104;entryY=0.192;entryDx=0;entryDy=0;entryPerimeter=0;" edge="1" parent="Q-Hs6A6w5mIqf8H45skU-23" target="Q-Hs6A6w5mIqf8H45skU-21">
          <mxGeometry width="50" height="50" relative="1" as="geometry">
            <mxPoint x="73.18181818181819" y="93.75" as="sourcePoint" />
            <mxPoint x="156.8181818181818" y="253.125" as="targetPoint" />
          </mxGeometry>
        </mxCell>
        <mxCell id="Q-Hs6A6w5mIqf8H45skU-21" value="" style="ellipse;whiteSpace=wrap;html=1;fontFamily=Helvetica;fontSize=9;fontColor=none;" vertex="1" parent="Q-Hs6A6w5mIqf8H45skU-23">
          <mxGeometry x="115.91" y="210" width="113.18" height="60" as="geometry" />
        </mxCell>
        <mxCell id="Q-Hs6A6w5mIqf8H45skU-22" value="&lt;font style=&quot;font-size: 11px&quot;&gt;Змінити мову сайту&lt;/font&gt;" style="text;html=1;strokeColor=none;fillColor=none;align=center;verticalAlign=middle;whiteSpace=wrap;rounded=0;fontFamily=Times New Roman;fontSize=9;fontColor=none;" vertex="1" parent="Q-Hs6A6w5mIqf8H45skU-23">
          <mxGeometry x="88.86272727272728" y="221.25000000000003" width="167.27272727272728" height="37.5" as="geometry" />
        </mxCell>
        <mxCell id="Q-Hs6A6w5mIqf8H45skU-65" value="За допомогою&lt;br&gt;Facebook" style="ellipse;whiteSpace=wrap;html=1;fontFamily=Times New Roman;fontSize=12;fontColor=none;" vertex="1" parent="Q-Hs6A6w5mIqf8H45skU-23">
          <mxGeometry x="288.18" y="187.5" width="90" height="60" as="geometry" />
        </mxCell>
        <mxCell id="Q-Hs6A6w5mIqf8H45skU-26" value="Завантажити додаток на смартфон" style="ellipse;whiteSpace=wrap;html=1;fontFamily=Times New Roman;fontSize=12;fontColor=none;" vertex="1" parent="1">
          <mxGeometry x="120" y="310" width="120" height="80" as="geometry" />
        </mxCell>
        <mxCell id="Q-Hs6A6w5mIqf8H45skU-27" value="" style="ellipse;whiteSpace=wrap;html=1;fontFamily=Times New Roman;fontSize=12;fontColor=none;" vertex="1" parent="1">
          <mxGeometry x="20" y="560" width="120" height="70" as="geometry" />
        </mxCell>
        <mxCell id="Q-Hs6A6w5mIqf8H45skU-28" value="Переглянути оголошення" style="text;html=1;strokeColor=none;fillColor=none;align=center;verticalAlign=middle;whiteSpace=wrap;rounded=0;fontFamily=Times New Roman;fontSize=12;fontColor=none;" vertex="1" parent="1">
          <mxGeometry x="50" y="580" width="60" height="30" as="geometry" />
        </mxCell>
        <mxCell id="Q-Hs6A6w5mIqf8H45skU-29" value="Обрати категорію" style="ellipse;whiteSpace=wrap;html=1;fontFamily=Times New Roman;fontSize=12;fontColor=none;" vertex="1" parent="1">
          <mxGeometry x="10" y="720" width="90" height="50" as="geometry" />
        </mxCell>
        <mxCell id="Q-Hs6A6w5mIqf8H45skU-30" value="Переглянути&lt;br&gt;VIP оголошення" style="ellipse;whiteSpace=wrap;html=1;fontFamily=Times New Roman;fontSize=12;fontColor=none;" vertex="1" parent="1">
          <mxGeometry x="100" y="760" width="100" height="50" as="geometry" />
        </mxCell>
        <mxCell id="Q-Hs6A6w5mIqf8H45skU-31" value="" style="endArrow=classic;html=1;rounded=0;fontFamily=Times New Roman;fontSize=12;fontColor=none;exitX=0.5;exitY=1;exitDx=0;exitDy=0;entryX=0.5;entryY=0;entryDx=0;entryDy=0;" edge="1" parent="1" source="Q-Hs6A6w5mIqf8H45skU-27" target="Q-Hs6A6w5mIqf8H45skU-29">
          <mxGeometry width="50" height="50" relative="1" as="geometry">
            <mxPoint x="60" y="600" as="sourcePoint" />
            <mxPoint x="110" y="550" as="targetPoint" />
          </mxGeometry>
        </mxCell>
        <mxCell id="Q-Hs6A6w5mIqf8H45skU-32" value="" style="endArrow=classic;html=1;rounded=0;fontFamily=Times New Roman;fontSize=12;fontColor=none;exitX=0.5;exitY=1;exitDx=0;exitDy=0;entryX=0.5;entryY=0;entryDx=0;entryDy=0;" edge="1" parent="1" source="Q-Hs6A6w5mIqf8H45skU-27" target="Q-Hs6A6w5mIqf8H45skU-30">
          <mxGeometry width="50" height="50" relative="1" as="geometry">
            <mxPoint x="60" y="600" as="sourcePoint" />
            <mxPoint x="110" y="550" as="targetPoint" />
          </mxGeometry>
        </mxCell>
        <mxCell id="Q-Hs6A6w5mIqf8H45skU-33" value="" style="endArrow=classic;html=1;rounded=0;fontFamily=Times New Roman;fontSize=12;fontColor=none;" edge="1" parent="1" target="Q-Hs6A6w5mIqf8H45skU-27">
          <mxGeometry width="50" height="50" relative="1" as="geometry">
            <mxPoint x="80" y="200" as="sourcePoint" />
            <mxPoint x="290" y="310" as="targetPoint" />
          </mxGeometry>
        </mxCell>
        <mxCell id="Q-Hs6A6w5mIqf8H45skU-34" value="" style="endArrow=classic;html=1;rounded=0;fontFamily=Times New Roman;fontSize=12;fontColor=none;entryX=0.5;entryY=0;entryDx=0;entryDy=0;" edge="1" parent="1" target="Q-Hs6A6w5mIqf8H45skU-26">
          <mxGeometry width="50" height="50" relative="1" as="geometry">
            <mxPoint x="80" y="200" as="sourcePoint" />
            <mxPoint x="290" y="360" as="targetPoint" />
          </mxGeometry>
        </mxCell>
        <mxCell id="Q-Hs6A6w5mIqf8H45skU-35" value="Google play&amp;nbsp;" style="ellipse;whiteSpace=wrap;html=1;fontFamily=Times New Roman;fontSize=12;fontColor=none;" vertex="1" parent="1">
          <mxGeometry x="100" y="420" width="70" height="40" as="geometry" />
        </mxCell>
        <mxCell id="Q-Hs6A6w5mIqf8H45skU-36" value="App store" style="ellipse;whiteSpace=wrap;html=1;fontFamily=Times New Roman;fontSize=12;fontColor=none;" vertex="1" parent="1">
          <mxGeometry x="182.5" y="420" width="70" height="40" as="geometry" />
        </mxCell>
        <mxCell id="Q-Hs6A6w5mIqf8H45skU-37" value="" style="endArrow=classic;html=1;rounded=0;fontFamily=Times New Roman;fontSize=12;fontColor=none;exitX=0.5;exitY=1;exitDx=0;exitDy=0;entryX=0.5;entryY=0;entryDx=0;entryDy=0;" edge="1" parent="1" source="Q-Hs6A6w5mIqf8H45skU-26" target="Q-Hs6A6w5mIqf8H45skU-35">
          <mxGeometry width="50" height="50" relative="1" as="geometry">
            <mxPoint x="240" y="480" as="sourcePoint" />
            <mxPoint x="290" y="430" as="targetPoint" />
          </mxGeometry>
        </mxCell>
        <mxCell id="Q-Hs6A6w5mIqf8H45skU-38" value="" style="endArrow=classic;html=1;rounded=0;fontFamily=Times New Roman;fontSize=12;fontColor=none;entryX=0.5;entryY=0;entryDx=0;entryDy=0;" edge="1" parent="1" target="Q-Hs6A6w5mIqf8H45skU-36">
          <mxGeometry width="50" height="50" relative="1" as="geometry">
            <mxPoint x="180" y="390" as="sourcePoint" />
            <mxPoint x="144.9999999999999" y="429.9999999999999" as="targetPoint" />
          </mxGeometry>
        </mxCell>
        <mxCell id="Q-Hs6A6w5mIqf8H45skU-39" value="Обрати оголошення" style="ellipse;whiteSpace=wrap;html=1;fontFamily=Times New Roman;fontSize=12;fontColor=none;" vertex="1" parent="1">
          <mxGeometry x="230" y="680" width="90" height="50" as="geometry" />
        </mxCell>
        <mxCell id="Q-Hs6A6w5mIqf8H45skU-40" value="" style="endArrow=classic;html=1;rounded=0;fontFamily=Times New Roman;fontSize=12;fontColor=none;" edge="1" parent="1" target="Q-Hs6A6w5mIqf8H45skU-39">
          <mxGeometry width="50" height="50" relative="1" as="geometry">
            <mxPoint x="80" y="630" as="sourcePoint" />
            <mxPoint x="65.00000000000011" y="730" as="targetPoint" />
          </mxGeometry>
        </mxCell>
        <mxCell id="Q-Hs6A6w5mIqf8H45skU-41" value="Отримати &lt;br&gt;телефон&lt;br&gt;продавця" style="ellipse;whiteSpace=wrap;html=1;fontFamily=Times New Roman;fontSize=12;fontColor=none;" vertex="1" parent="1">
          <mxGeometry x="220" y="770" width="100" height="50" as="geometry" />
        </mxCell>
        <mxCell id="Q-Hs6A6w5mIqf8H45skU-42" value="" style="endArrow=classic;html=1;rounded=0;fontFamily=Times New Roman;fontSize=12;fontColor=none;exitX=0.5;exitY=1;exitDx=0;exitDy=0;entryX=0.5;entryY=0;entryDx=0;entryDy=0;" edge="1" parent="1" source="Q-Hs6A6w5mIqf8H45skU-39" target="Q-Hs6A6w5mIqf8H45skU-41">
          <mxGeometry width="50" height="50" relative="1" as="geometry">
            <mxPoint x="240" y="760" as="sourcePoint" />
            <mxPoint x="260" y="780" as="targetPoint" />
          </mxGeometry>
        </mxCell>
        <mxCell id="Q-Hs6A6w5mIqf8H45skU-43" value="Переглянути &lt;br&gt;усі оголошення продавця" style="ellipse;whiteSpace=wrap;html=1;fontFamily=Times New Roman;fontSize=12;fontColor=none;" vertex="1" parent="1">
          <mxGeometry x="330" y="760" width="110" height="55" as="geometry" />
        </mxCell>
        <mxCell id="Q-Hs6A6w5mIqf8H45skU-44" value="" style="endArrow=classic;html=1;rounded=0;fontFamily=Times New Roman;fontSize=12;fontColor=none;exitX=0.716;exitY=0.964;exitDx=0;exitDy=0;entryX=0.5;entryY=0;entryDx=0;entryDy=0;exitPerimeter=0;" edge="1" parent="1" source="Q-Hs6A6w5mIqf8H45skU-39" target="Q-Hs6A6w5mIqf8H45skU-43">
          <mxGeometry width="50" height="50" relative="1" as="geometry">
            <mxPoint x="274.9999999999999" y="740" as="sourcePoint" />
            <mxPoint x="259.9999999999999" y="780" as="targetPoint" />
          </mxGeometry>
        </mxCell>
        <mxCell id="Q-Hs6A6w5mIqf8H45skU-45" value="" style="endArrow=classic;html=1;rounded=0;fontFamily=Times New Roman;fontSize=14;fontColor=none;exitX=1;exitY=0.5;exitDx=0;exitDy=0;entryX=0.25;entryY=0.1;entryDx=0;entryDy=0;entryPerimeter=0;" edge="1" parent="1" source="Q-Hs6A6w5mIqf8H45skU-11" target="Q-Hs6A6w5mIqf8H45skU-49">
          <mxGeometry width="50" height="50" relative="1" as="geometry">
            <mxPoint x="290" y="160" as="sourcePoint" />
            <mxPoint x="600" y="40" as="targetPoint" />
          </mxGeometry>
        </mxCell>
        <mxCell id="Q-Hs6A6w5mIqf8H45skU-46" value="" style="endArrow=classic;html=1;rounded=0;fontFamily=Times New Roman;fontSize=14;fontColor=none;exitX=1;exitY=0.5;exitDx=0;exitDy=0;entryX=0.25;entryY=0.1;entryDx=0;entryDy=0;entryPerimeter=0;" edge="1" parent="1" source="Q-Hs6A6w5mIqf8H45skU-13" target="Q-Hs6A6w5mIqf8H45skU-49">
          <mxGeometry width="50" height="50" relative="1" as="geometry">
            <mxPoint x="290" y="160" as="sourcePoint" />
            <mxPoint x="600" y="40" as="targetPoint" />
          </mxGeometry>
        </mxCell>
        <mxCell id="Q-Hs6A6w5mIqf8H45skU-49" value="Actor" style="shape=umlActor;verticalLabelPosition=bottom;verticalAlign=top;html=1;outlineConnect=0;fontFamily=Helvetica;overflow=visible;fontColor=none;noLabel=1;" vertex="1" parent="1">
          <mxGeometry x="640.0045454545455" y="37.5" width="62.72727272727272" height="112.5" as="geometry" />
        </mxCell>
        <mxCell id="Q-Hs6A6w5mIqf8H45skU-50" value="&lt;font style=&quot;font-size: 12px&quot;&gt;Зареєстрований&lt;br&gt;користувач&lt;/font&gt;" style="text;html=1;strokeColor=none;fillColor=none;align=center;verticalAlign=middle;whiteSpace=wrap;rounded=0;fontFamily=Times New Roman;fontColor=none;fontSize=10;" vertex="1" parent="1">
          <mxGeometry x="623.87" y="150" width="95" height="37.5" as="geometry" />
        </mxCell>
        <mxCell id="Q-Hs6A6w5mIqf8H45skU-51" value="Actor" style="shape=umlActor;verticalLabelPosition=bottom;verticalAlign=top;html=1;outlineConnect=0;fontFamily=Helvetica;overflow=visible;fontColor=none;noLabel=1;" vertex="1" parent="1">
          <mxGeometry x="522.0045454545455" y="210" width="62.72727272727272" height="112.5" as="geometry" />
        </mxCell>
        <mxCell id="Q-Hs6A6w5mIqf8H45skU-52" value="Actor" style="shape=umlActor;verticalLabelPosition=bottom;verticalAlign=top;html=1;outlineConnect=0;fontFamily=Helvetica;overflow=visible;fontColor=none;noLabel=1;" vertex="1" parent="1">
          <mxGeometry x="758.8745454545455" y="210" width="62.72727272727272" height="112.5" as="geometry" />
        </mxCell>
        <mxCell id="Q-Hs6A6w5mIqf8H45skU-53" value="&lt;span style=&quot;font-size: 12px;&quot;&gt;Продавець&lt;/span&gt;" style="text;html=1;strokeColor=none;fillColor=none;align=center;verticalAlign=middle;whiteSpace=wrap;rounded=0;fontFamily=Times New Roman;fontColor=none;fontSize=12;" vertex="1" parent="1">
          <mxGeometry x="505.87" y="331.25" width="95" height="37.5" as="geometry" />
        </mxCell>
        <mxCell id="Q-Hs6A6w5mIqf8H45skU-54" value="&lt;span style=&quot;font-size: 12px&quot;&gt;Покупець&lt;/span&gt;" style="text;html=1;strokeColor=none;fillColor=none;align=center;verticalAlign=middle;whiteSpace=wrap;rounded=0;fontFamily=Times New Roman;fontColor=none;fontSize=12;" vertex="1" parent="1">
          <mxGeometry x="742.74" y="331.25" width="95" height="37.5" as="geometry" />
        </mxCell>
        <mxCell id="Q-Hs6A6w5mIqf8H45skU-55" value="" style="endArrow=classic;html=1;rounded=0;fontFamily=Times New Roman;fontSize=12;fontColor=none;exitX=0.5;exitY=1;exitDx=0;exitDy=0;entryX=0.5;entryY=0;entryDx=0;entryDy=0;entryPerimeter=0;" edge="1" parent="1" source="Q-Hs6A6w5mIqf8H45skU-50" target="Q-Hs6A6w5mIqf8H45skU-51">
          <mxGeometry width="50" height="50" relative="1" as="geometry">
            <mxPoint x="530" y="300" as="sourcePoint" />
            <mxPoint x="580" y="250" as="targetPoint" />
          </mxGeometry>
        </mxCell>
        <mxCell id="Q-Hs6A6w5mIqf8H45skU-56" value="" style="endArrow=classic;html=1;rounded=0;fontFamily=Times New Roman;fontSize=12;fontColor=none;exitX=0.5;exitY=1;exitDx=0;exitDy=0;entryX=0.5;entryY=0;entryDx=0;entryDy=0;entryPerimeter=0;" edge="1" parent="1" source="Q-Hs6A6w5mIqf8H45skU-50" target="Q-Hs6A6w5mIqf8H45skU-52">
          <mxGeometry width="50" height="50" relative="1" as="geometry">
            <mxPoint x="530" y="300" as="sourcePoint" />
            <mxPoint x="580" y="250" as="targetPoint" />
          </mxGeometry>
        </mxCell>
        <mxCell id="Q-Hs6A6w5mIqf8H45skU-57" value="" style="endArrow=classic;html=1;rounded=0;fontFamily=Times New Roman;fontSize=12;fontColor=none;exitX=0.5;exitY=1;exitDx=0;exitDy=0;" edge="1" parent="1" source="Q-Hs6A6w5mIqf8H45skU-53" target="Q-Hs6A6w5mIqf8H45skU-58">
          <mxGeometry width="50" height="50" relative="1" as="geometry">
            <mxPoint x="340" y="510" as="sourcePoint" />
            <mxPoint x="390" y="460" as="targetPoint" />
          </mxGeometry>
        </mxCell>
        <mxCell id="Q-Hs6A6w5mIqf8H45skU-58" value="Просувати свій бізнес" style="ellipse;whiteSpace=wrap;html=1;fontFamily=Times New Roman;fontSize=12;fontColor=none;" vertex="1" parent="1">
          <mxGeometry x="290" y="460" width="110" height="60" as="geometry" />
        </mxCell>
        <mxCell id="Q-Hs6A6w5mIqf8H45skU-59" value="" style="endArrow=classic;html=1;rounded=0;fontFamily=Times New Roman;fontSize=12;fontColor=none;exitX=0.5;exitY=1;exitDx=0;exitDy=0;" edge="1" parent="1" source="Q-Hs6A6w5mIqf8H45skU-58">
          <mxGeometry width="50" height="50" relative="1" as="geometry">
            <mxPoint x="563.3699999999999" y="378.75" as="sourcePoint" />
            <mxPoint x="280" y="560" as="targetPoint" />
          </mxGeometry>
        </mxCell>
        <mxCell id="Q-Hs6A6w5mIqf8H45skU-60" value="Придбати старт пакет" style="ellipse;whiteSpace=wrap;html=1;fontFamily=Times New Roman;fontSize=12;fontColor=none;" vertex="1" parent="1">
          <mxGeometry x="225" y="560" width="100" height="60" as="geometry" />
        </mxCell>
        <mxCell id="Q-Hs6A6w5mIqf8H45skU-61" value="Придбати &lt;br&gt;преміум пакет" style="ellipse;whiteSpace=wrap;html=1;fontFamily=Times New Roman;fontSize=12;fontColor=none;" vertex="1" parent="1">
          <mxGeometry x="360" y="560" width="100" height="60" as="geometry" />
        </mxCell>
        <mxCell id="Q-Hs6A6w5mIqf8H45skU-62" value="" style="endArrow=classic;html=1;rounded=0;fontFamily=Times New Roman;fontSize=12;fontColor=none;exitX=0.5;exitY=1;exitDx=0;exitDy=0;entryX=0.5;entryY=0;entryDx=0;entryDy=0;" edge="1" parent="1" source="Q-Hs6A6w5mIqf8H45skU-58" target="Q-Hs6A6w5mIqf8H45skU-61">
          <mxGeometry width="50" height="50" relative="1" as="geometry">
            <mxPoint x="355" y="530" as="sourcePoint" />
            <mxPoint x="290" y="570" as="targetPoint" />
          </mxGeometry>
        </mxCell>
        <mxCell id="Q-Hs6A6w5mIqf8H45skU-63" value="Номер телефону + пароль" style="ellipse;whiteSpace=wrap;html=1;fontFamily=Times New Roman;fontSize=12;fontColor=none;" vertex="1" parent="1">
          <mxGeometry x="495" y="110" width="90" height="60" as="geometry" />
        </mxCell>
        <mxCell id="Q-Hs6A6w5mIqf8H45skU-64" value="E-mail + пароль" style="ellipse;whiteSpace=wrap;html=1;fontFamily=Times New Roman;fontSize=12;fontColor=none;" vertex="1" parent="1">
          <mxGeometry x="432" y="170" width="90" height="60" as="geometry" />
        </mxCell>
        <mxCell id="Q-Hs6A6w5mIqf8H45skU-66" value="" style="endArrow=classic;html=1;rounded=0;fontFamily=Times New Roman;fontSize=12;fontColor=none;exitX=0.5;exitY=1;exitDx=0;exitDy=0;entryX=0.5;entryY=0;entryDx=0;entryDy=0;" edge="1" parent="1" source="Q-Hs6A6w5mIqf8H45skU-13" target="Q-Hs6A6w5mIqf8H45skU-65">
          <mxGeometry width="50" height="50" relative="1" as="geometry">
            <mxPoint x="470" y="200" as="sourcePoint" />
            <mxPoint x="520" y="150" as="targetPoint" />
          </mxGeometry>
        </mxCell>
        <mxCell id="Q-Hs6A6w5mIqf8H45skU-67" value="" style="endArrow=classic;html=1;rounded=0;fontFamily=Times New Roman;fontSize=12;fontColor=none;exitX=0.5;exitY=1;exitDx=0;exitDy=0;entryX=0;entryY=0;entryDx=0;entryDy=0;" edge="1" parent="1" source="Q-Hs6A6w5mIqf8H45skU-13" target="Q-Hs6A6w5mIqf8H45skU-64">
          <mxGeometry width="50" height="50" relative="1" as="geometry">
            <mxPoint x="470" y="200" as="sourcePoint" />
            <mxPoint x="520" y="150" as="targetPoint" />
          </mxGeometry>
        </mxCell>
        <mxCell id="Q-Hs6A6w5mIqf8H45skU-68" value="" style="endArrow=classic;html=1;rounded=0;fontFamily=Times New Roman;fontSize=12;fontColor=none;exitX=0.5;exitY=1;exitDx=0;exitDy=0;entryX=0;entryY=0.5;entryDx=0;entryDy=0;" edge="1" parent="1" source="Q-Hs6A6w5mIqf8H45skU-13" target="Q-Hs6A6w5mIqf8H45skU-63">
          <mxGeometry width="50" height="50" relative="1" as="geometry">
            <mxPoint x="470" y="200" as="sourcePoint" />
            <mxPoint x="520" y="150" as="targetPoint" />
          </mxGeometry>
        </mxCell>
        <mxCell id="Q-Hs6A6w5mIqf8H45skU-69" value="" style="endArrow=classic;html=1;rounded=0;fontFamily=Times New Roman;fontSize=12;fontColor=none;exitX=0.5;exitY=1;exitDx=0;exitDy=0;entryX=0.5;entryY=0;entryDx=0;entryDy=0;" edge="1" parent="1" source="Q-Hs6A6w5mIqf8H45skU-53" target="Q-Hs6A6w5mIqf8H45skU-70">
          <mxGeometry width="50" height="50" relative="1" as="geometry">
            <mxPoint x="650" y="490" as="sourcePoint" />
            <mxPoint x="540" y="600" as="targetPoint" />
          </mxGeometry>
        </mxCell>
        <mxCell id="Q-Hs6A6w5mIqf8H45skU-70" value="Додати оголошення" style="ellipse;whiteSpace=wrap;html=1;fontFamily=Times New Roman;fontSize=12;fontColor=none;" vertex="1" parent="1">
          <mxGeometry x="480" y="600" width="120" height="50" as="geometry" />
        </mxCell>
        <mxCell id="Q-Hs6A6w5mIqf8H45skU-71" value="Додати фото, опис, категорію" style="ellipse;whiteSpace=wrap;html=1;fontFamily=Times New Roman;fontSize=12;fontColor=none;" vertex="1" parent="1">
          <mxGeometry x="370" y="680" width="110" height="60" as="geometry" />
        </mxCell>
        <mxCell id="Q-Hs6A6w5mIqf8H45skU-72" value="" style="endArrow=classic;html=1;rounded=0;fontFamily=Times New Roman;fontSize=12;fontColor=none;exitX=0.5;exitY=1;exitDx=0;exitDy=0;entryX=0.5;entryY=0;entryDx=0;entryDy=0;" edge="1" parent="1" source="Q-Hs6A6w5mIqf8H45skU-70" target="Q-Hs6A6w5mIqf8H45skU-71">
          <mxGeometry width="50" height="50" relative="1" as="geometry">
            <mxPoint x="530" y="770" as="sourcePoint" />
            <mxPoint x="580" y="720" as="targetPoint" />
          </mxGeometry>
        </mxCell>
        <mxCell id="Q-Hs6A6w5mIqf8H45skU-73" value="Залишити контакти" style="ellipse;whiteSpace=wrap;html=1;fontFamily=Times New Roman;fontSize=12;fontColor=none;" vertex="1" parent="1">
          <mxGeometry x="440" y="740" width="120" height="45" as="geometry" />
        </mxCell>
        <mxCell id="Q-Hs6A6w5mIqf8H45skU-74" value="" style="endArrow=classic;html=1;rounded=0;fontFamily=Times New Roman;fontSize=12;fontColor=none;exitX=0.5;exitY=1;exitDx=0;exitDy=0;entryX=0.5;entryY=0;entryDx=0;entryDy=0;" edge="1" parent="1" source="Q-Hs6A6w5mIqf8H45skU-70" target="Q-Hs6A6w5mIqf8H45skU-73">
          <mxGeometry width="50" height="50" relative="1" as="geometry">
            <mxPoint x="530" y="700" as="sourcePoint" />
            <mxPoint x="580" y="650" as="targetPoint" />
          </mxGeometry>
        </mxCell>
        <mxCell id="Q-Hs6A6w5mIqf8H45skU-75" value="Переглянути попередній вигляд оголошення" style="ellipse;whiteSpace=wrap;html=1;fontFamily=Times New Roman;fontSize=12;fontColor=none;" vertex="1" parent="1">
          <mxGeometry x="570" y="750" width="120" height="60" as="geometry" />
        </mxCell>
        <mxCell id="Q-Hs6A6w5mIqf8H45skU-76" value="" style="endArrow=classic;html=1;rounded=0;fontFamily=Times New Roman;fontSize=12;fontColor=none;entryX=0.5;entryY=0;entryDx=0;entryDy=0;" edge="1" parent="1" target="Q-Hs6A6w5mIqf8H45skU-75">
          <mxGeometry width="50" height="50" relative="1" as="geometry">
            <mxPoint x="540" y="650" as="sourcePoint" />
            <mxPoint x="580" y="630" as="targetPoint" />
          </mxGeometry>
        </mxCell>
        <mxCell id="Q-Hs6A6w5mIqf8H45skU-77" value="Переглянути повідомлення" style="ellipse;whiteSpace=wrap;html=1;fontFamily=Times New Roman;fontSize=12;fontColor=none;" vertex="1" parent="1">
          <mxGeometry x="718.87" y="414" width="120" height="66" as="geometry" />
        </mxCell>
        <mxCell id="Q-Hs6A6w5mIqf8H45skU-78" value="" style="endArrow=classic;html=1;rounded=0;fontFamily=Times New Roman;fontSize=12;fontColor=none;exitX=0.5;exitY=1;exitDx=0;exitDy=0;entryX=0;entryY=0;entryDx=0;entryDy=0;" edge="1" parent="1" source="Q-Hs6A6w5mIqf8H45skU-53" target="Q-Hs6A6w5mIqf8H45skU-77">
          <mxGeometry width="50" height="50" relative="1" as="geometry">
            <mxPoint x="800" y="530" as="sourcePoint" />
            <mxPoint x="850" y="480" as="targetPoint" />
          </mxGeometry>
        </mxCell>
        <mxCell id="Q-Hs6A6w5mIqf8H45skU-79" value="" style="endArrow=classic;html=1;rounded=0;fontFamily=Times New Roman;fontSize=12;fontColor=none;exitX=0.5;exitY=1;exitDx=0;exitDy=0;entryX=0.5;entryY=0;entryDx=0;entryDy=0;" edge="1" parent="1" source="Q-Hs6A6w5mIqf8H45skU-54" target="Q-Hs6A6w5mIqf8H45skU-77">
          <mxGeometry width="50" height="50" relative="1" as="geometry">
            <mxPoint x="800" y="530" as="sourcePoint" />
            <mxPoint x="850" y="480" as="targetPoint" />
          </mxGeometry>
        </mxCell>
        <mxCell id="Q-Hs6A6w5mIqf8H45skU-80" value="Відповісти на повідомлення" style="ellipse;whiteSpace=wrap;html=1;fontFamily=Times New Roman;fontSize=12;fontColor=none;" vertex="1" parent="1">
          <mxGeometry x="800" y="490" width="120" height="70" as="geometry" />
        </mxCell>
        <mxCell id="Q-Hs6A6w5mIqf8H45skU-81" value="" style="endArrow=classic;html=1;rounded=0;fontFamily=Times New Roman;fontSize=12;fontColor=none;exitX=1;exitY=1;exitDx=0;exitDy=0;entryX=0.5;entryY=0;entryDx=0;entryDy=0;" edge="1" parent="1" source="Q-Hs6A6w5mIqf8H45skU-77" target="Q-Hs6A6w5mIqf8H45skU-80">
          <mxGeometry width="50" height="50" relative="1" as="geometry">
            <mxPoint x="800" y="600" as="sourcePoint" />
            <mxPoint x="850" y="550" as="targetPoint" />
          </mxGeometry>
        </mxCell>
        <mxCell id="Q-Hs6A6w5mIqf8H45skU-83" value="Отримати оплату" style="ellipse;whiteSpace=wrap;html=1;fontFamily=Times New Roman;fontSize=12;fontColor=none;" vertex="1" parent="1">
          <mxGeometry x="670" y="520" width="120" height="60" as="geometry" />
        </mxCell>
        <mxCell id="Q-Hs6A6w5mIqf8H45skU-84" value="Оформити&amp;nbsp;&lt;br&gt;&lt;span style=&quot;background-color: rgb(255 , 255 , 255)&quot;&gt;&lt;font style=&quot;font-size: 12px&quot;&gt;OLX Доставку&lt;/font&gt;&lt;/span&gt;" style="ellipse;whiteSpace=wrap;html=1;fontFamily=Times New Roman;fontSize=12;fontColor=none;" vertex="1" parent="1">
          <mxGeometry x="623.87" y="590" width="120" height="80" as="geometry" />
        </mxCell>
        <mxCell id="Q-Hs6A6w5mIqf8H45skU-85" value="" style="endArrow=classic;html=1;rounded=0;fontFamily=Times New Roman;fontSize=12;fontColor=#000000;entryX=0;entryY=0;entryDx=0;entryDy=0;" edge="1" parent="1" target="Q-Hs6A6w5mIqf8H45skU-84">
          <mxGeometry width="50" height="50" relative="1" as="geometry">
            <mxPoint x="553" y="370" as="sourcePoint" />
            <mxPoint x="850" y="610" as="targetPoint" />
          </mxGeometry>
        </mxCell>
        <mxCell id="Q-Hs6A6w5mIqf8H45skU-86" value="" style="endArrow=classic;html=1;rounded=0;fontFamily=Times New Roman;fontSize=12;fontColor=#000000;entryX=0;entryY=0;entryDx=0;entryDy=0;" edge="1" parent="1">
          <mxGeometry width="50" height="50" relative="1" as="geometry">
            <mxPoint x="554" y="370" as="sourcePoint" />
            <mxPoint x="691.5735931288073" y="528.7867965644035" as="targetPoint" />
          </mxGeometry>
        </mxCell>
        <mxCell id="Q-Hs6A6w5mIqf8H45skU-88" value="Actor" style="shape=umlActor;verticalLabelPosition=bottom;verticalAlign=top;html=1;outlineConnect=0;fontFamily=Helvetica;overflow=visible;fontColor=none;noLabel=1;" vertex="1" parent="1">
          <mxGeometry x="1070.0045454545455" y="647.5" width="62.72727272727272" height="112.5" as="geometry" />
        </mxCell>
        <mxCell id="Q-Hs6A6w5mIqf8H45skU-89" value="&lt;span style=&quot;font-size: 16px&quot;&gt;Банк&lt;/span&gt;" style="text;html=1;strokeColor=none;fillColor=none;align=center;verticalAlign=middle;whiteSpace=wrap;rounded=0;fontFamily=Times New Roman;fontColor=none;fontSize=12;" vertex="1" parent="1">
          <mxGeometry x="1053.87" y="768.75" width="95" height="37.5" as="geometry" />
        </mxCell>
        <mxCell id="Q-Hs6A6w5mIqf8H45skU-90" value="&lt;font style=&quot;font-size: 13px&quot;&gt;Отримати кошти&lt;/font&gt;" style="ellipse;whiteSpace=wrap;html=1;fontFamily=Times New Roman;fontSize=16;fontColor=#000000;" vertex="1" parent="1">
          <mxGeometry x="900" y="600" width="120" height="80" as="geometry" />
        </mxCell>
        <mxCell id="Q-Hs6A6w5mIqf8H45skU-91" value="&lt;font style=&quot;font-size: 14px&quot;&gt;Відправити кошти&lt;/font&gt;" style="ellipse;whiteSpace=wrap;html=1;fontFamily=Times New Roman;fontSize=16;fontColor=#000000;" vertex="1" parent="1">
          <mxGeometry x="860" y="710" width="120" height="80" as="geometry" />
        </mxCell>
        <mxCell id="Q-Hs6A6w5mIqf8H45skU-92" value="" style="endArrow=classic;html=1;rounded=0;fontFamily=Times New Roman;fontSize=14;fontColor=#000000;exitX=0;exitY=0.406;exitDx=0;exitDy=0;exitPerimeter=0;" edge="1" parent="1" source="Q-Hs6A6w5mIqf8H45skU-91" target="Q-Hs6A6w5mIqf8H45skU-83">
          <mxGeometry width="50" height="50" relative="1" as="geometry">
            <mxPoint x="800" y="720" as="sourcePoint" />
            <mxPoint x="850" y="670" as="targetPoint" />
          </mxGeometry>
        </mxCell>
        <mxCell id="Q-Hs6A6w5mIqf8H45skU-93" value="" style="endArrow=classic;html=1;rounded=0;fontFamily=Times New Roman;fontSize=14;fontColor=#000000;exitX=0;exitY=0.5;exitDx=0;exitDy=0;" edge="1" parent="1" source="Q-Hs6A6w5mIqf8H45skU-89">
          <mxGeometry width="50" height="50" relative="1" as="geometry">
            <mxPoint x="740" y="720" as="sourcePoint" />
            <mxPoint x="980" y="750" as="targetPoint" />
          </mxGeometry>
        </mxCell>
        <mxCell id="Q-Hs6A6w5mIqf8H45skU-94" value="" style="endArrow=classic;html=1;rounded=0;fontFamily=Times New Roman;fontSize=13;fontColor=#000000;exitX=0;exitY=0.5;exitDx=0;exitDy=0;entryX=1;entryY=1;entryDx=0;entryDy=0;" edge="1" parent="1" source="Q-Hs6A6w5mIqf8H45skU-89" target="Q-Hs6A6w5mIqf8H45skU-90">
          <mxGeometry width="50" height="50" relative="1" as="geometry">
            <mxPoint x="740" y="650" as="sourcePoint" />
            <mxPoint x="790" y="600" as="targetPoint" />
          </mxGeometry>
        </mxCell>
        <mxCell id="Q-Hs6A6w5mIqf8H45skU-95" value="" style="endArrow=classic;html=1;rounded=0;fontFamily=Times New Roman;fontSize=13;fontColor=#000000;exitX=1;exitY=0.3333333333333333;exitDx=0;exitDy=0;exitPerimeter=0;entryX=0;entryY=0.5;entryDx=0;entryDy=0;" edge="1" parent="1" source="Q-Hs6A6w5mIqf8H45skU-52" target="Q-Hs6A6w5mIqf8H45skU-96">
          <mxGeometry width="50" height="50" relative="1" as="geometry">
            <mxPoint x="740" y="510" as="sourcePoint" />
            <mxPoint x="880" y="250" as="targetPoint" />
          </mxGeometry>
        </mxCell>
        <mxCell id="Q-Hs6A6w5mIqf8H45skU-96" value="Перевірити відправлення при отриманні" style="ellipse;whiteSpace=wrap;html=1;fontFamily=Times New Roman;fontSize=13;fontColor=#000000;" vertex="1" parent="1">
          <mxGeometry x="990" y="226.25" width="120" height="80" as="geometry" />
        </mxCell>
        <mxCell id="Q-Hs6A6w5mIqf8H45skU-97" value="Залишити відгук" style="ellipse;whiteSpace=wrap;html=1;fontFamily=Times New Roman;fontSize=13;fontColor=#000000;" vertex="1" parent="1">
          <mxGeometry x="860" y="422" width="100" height="50" as="geometry" />
        </mxCell>
        <mxCell id="Q-Hs6A6w5mIqf8H45skU-98" value="" style="endArrow=classic;html=1;rounded=0;fontFamily=Times New Roman;fontSize=13;fontColor=#000000;exitX=0.5;exitY=1;exitDx=0;exitDy=0;entryX=0;entryY=0.5;entryDx=0;entryDy=0;" edge="1" parent="1" source="Q-Hs6A6w5mIqf8H45skU-54" target="Q-Hs6A6w5mIqf8H45skU-97">
          <mxGeometry width="50" height="50" relative="1" as="geometry">
            <mxPoint x="740" y="490" as="sourcePoint" />
            <mxPoint x="790" y="440" as="targetPoint" />
          </mxGeometry>
        </mxCell>
        <mxCell id="Q-Hs6A6w5mIqf8H45skU-99" value="Оплатити товар" style="ellipse;whiteSpace=wrap;html=1;fontFamily=Times New Roman;fontSize=13;fontColor=#000000;" vertex="1" parent="1">
          <mxGeometry x="960" y="331.25" width="120" height="80" as="geometry" />
        </mxCell>
        <mxCell id="Q-Hs6A6w5mIqf8H45skU-100" value="" style="endArrow=classic;html=1;rounded=0;fontFamily=Times New Roman;fontSize=13;fontColor=#000000;exitX=0.5;exitY=1;exitDx=0;exitDy=0;entryX=0;entryY=0.5;entryDx=0;entryDy=0;" edge="1" parent="1" source="Q-Hs6A6w5mIqf8H45skU-54" target="Q-Hs6A6w5mIqf8H45skU-99">
          <mxGeometry width="50" height="50" relative="1" as="geometry">
            <mxPoint x="740" y="490" as="sourcePoint" />
            <mxPoint x="790" y="440" as="targetPoint" />
          </mxGeometry>
        </mxCell>
        <mxCell id="Q-Hs6A6w5mIqf8H45skU-101" value="" style="endArrow=classic;html=1;rounded=0;fontFamily=Times New Roman;fontSize=13;fontColor=#000000;exitX=0.5;exitY=1;exitDx=0;exitDy=0;entryX=0.5;entryY=0;entryDx=0;entryDy=0;" edge="1" parent="1" source="Q-Hs6A6w5mIqf8H45skU-99" target="Q-Hs6A6w5mIqf8H45skU-102">
          <mxGeometry width="50" height="50" relative="1" as="geometry">
            <mxPoint x="740" y="630" as="sourcePoint" />
            <mxPoint x="960" y="520" as="targetPoint" />
          </mxGeometry>
        </mxCell>
        <mxCell id="Q-Hs6A6w5mIqf8H45skU-102" value="Переказом на онлайн карту" style="ellipse;whiteSpace=wrap;html=1;fontFamily=Times New Roman;fontSize=13;fontColor=#000000;" vertex="1" parent="1">
          <mxGeometry x="940" y="500" width="100" height="60" as="geometry" />
        </mxCell>
        <mxCell id="Q-Hs6A6w5mIqf8H45skU-103" value="" style="endArrow=classic;html=1;rounded=0;fontFamily=Times New Roman;fontSize=13;fontColor=#000000;exitX=0.5;exitY=1;exitDx=0;exitDy=0;entryX=0.5;entryY=0;entryDx=0;entryDy=0;" edge="1" parent="1" source="Q-Hs6A6w5mIqf8H45skU-102" target="Q-Hs6A6w5mIqf8H45skU-90">
          <mxGeometry width="50" height="50" relative="1" as="geometry">
            <mxPoint x="740" y="630" as="sourcePoint" />
            <mxPoint x="790" y="580" as="targetPoint" />
          </mxGeometry>
        </mxCell>
        <mxCell id="Q-Hs6A6w5mIqf8H45skU-104" value="У поштовому відділенні&lt;br&gt;через термінал" style="ellipse;whiteSpace=wrap;html=1;fontFamily=Times New Roman;fontSize=13;fontColor=#000000;" vertex="1" parent="1">
          <mxGeometry x="1042.73" y="480" width="117.27" height="60" as="geometry" />
        </mxCell>
        <mxCell id="Q-Hs6A6w5mIqf8H45skU-105" value="" style="endArrow=classic;html=1;rounded=0;fontFamily=Times New Roman;fontSize=13;fontColor=#000000;entryX=0.5;entryY=0;entryDx=0;entryDy=0;exitX=0.5;exitY=1;exitDx=0;exitDy=0;" edge="1" parent="1" source="Q-Hs6A6w5mIqf8H45skU-99" target="Q-Hs6A6w5mIqf8H45skU-104">
          <mxGeometry width="50" height="50" relative="1" as="geometry">
            <mxPoint x="1040" y="460" as="sourcePoint" />
            <mxPoint x="990" y="560" as="targetPoint" />
          </mxGeometry>
        </mxCell>
        <mxCell id="Q-Hs6A6w5mIqf8H45skU-106" value="" style="endArrow=classic;html=1;rounded=0;fontFamily=Times New Roman;fontSize=13;fontColor=#000000;exitX=0.5;exitY=1;exitDx=0;exitDy=0;entryX=1;entryY=0;entryDx=0;entryDy=0;" edge="1" parent="1" source="Q-Hs6A6w5mIqf8H45skU-104" target="Q-Hs6A6w5mIqf8H45skU-90">
          <mxGeometry width="50" height="50" relative="1" as="geometry">
            <mxPoint x="940" y="610" as="sourcePoint" />
            <mxPoint x="990" y="560" as="targetPoint" />
          </mxGeometry>
        </mxCell>
        <mxCell id="Q-Hs6A6w5mIqf8H45skU-107" value="Оформити замовлення" style="ellipse;whiteSpace=wrap;html=1;fontFamily=Times New Roman;fontSize=13;fontColor=#000000;" vertex="1" parent="1">
          <mxGeometry x="960" y="107.5" width="120" height="80" as="geometry" />
        </mxCell>
        <mxCell id="Q-Hs6A6w5mIqf8H45skU-108" value="" style="endArrow=classic;html=1;rounded=0;fontFamily=Times New Roman;fontSize=13;fontColor=#000000;exitX=1;exitY=0.3333333333333333;exitDx=0;exitDy=0;exitPerimeter=0;entryX=0;entryY=0;entryDx=0;entryDy=0;" edge="1" parent="1" source="Q-Hs6A6w5mIqf8H45skU-52" target="Q-Hs6A6w5mIqf8H45skU-107">
          <mxGeometry width="50" height="50" relative="1" as="geometry">
            <mxPoint x="910" y="290" as="sourcePoint" />
            <mxPoint x="960" y="240" as="targetPoint" />
          </mxGeometry>
        </mxCell>
        <mxCell id="Q-Hs6A6w5mIqf8H45skU-109" value="" style="endArrow=classic;html=1;rounded=0;fontFamily=Times New Roman;fontSize=13;fontColor=#000000;exitX=0.5;exitY=0;exitDx=0;exitDy=0;entryX=0.5;entryY=1;entryDx=0;entryDy=0;" edge="1" parent="1" source="Q-Hs6A6w5mIqf8H45skU-107" target="Q-Hs6A6w5mIqf8H45skU-112">
          <mxGeometry width="50" height="50" relative="1" as="geometry">
            <mxPoint x="930" y="320" as="sourcePoint" />
            <mxPoint x="1000" y="260" as="targetPoint" />
          </mxGeometry>
        </mxCell>
        <mxCell id="Q-Hs6A6w5mIqf8H45skU-110" value="" style="endArrow=classic;html=1;rounded=0;fontFamily=Times New Roman;fontSize=13;fontColor=#000000;exitX=0.5;exitY=0;exitDx=0;exitDy=0;" edge="1" parent="1" source="Q-Hs6A6w5mIqf8H45skU-107" target="Q-Hs6A6w5mIqf8H45skU-111">
          <mxGeometry width="50" height="50" relative="1" as="geometry">
            <mxPoint x="1070" y="300" as="sourcePoint" />
            <mxPoint x="1100" y="270" as="targetPoint" />
          </mxGeometry>
        </mxCell>
        <mxCell id="Q-Hs6A6w5mIqf8H45skU-111" value="Ввести дані&amp;nbsp;" style="ellipse;whiteSpace=wrap;html=1;fontFamily=Times New Roman;fontSize=13;fontColor=#000000;" vertex="1" parent="1">
          <mxGeometry x="1060" y="30" width="91.13" height="50" as="geometry" />
        </mxCell>
        <mxCell id="Q-Hs6A6w5mIqf8H45skU-112" value="Обрати службу доставки" style="ellipse;whiteSpace=wrap;html=1;fontFamily=Times New Roman;fontSize=13;fontColor=#000000;" vertex="1" parent="1">
          <mxGeometry x="890" y="25.629999999999995" width="100" height="50" as="geometry" />
        </mxCell>
      </root>
    </mxGraphModel>
  </diagram>
</mxfile>
